#!OML:ASF F:\VICON\USERDATA\INSTALL\rory3\rory3.ASF
:FULLY-SPECIFIED
:DEGREES
109
root 0.809982 18.0899 -9.03288 -3.00867 -4.48613 -2.35368
lowerback 9.88573 2.16669 3.10904
upperback 0.0550249 3.28338 0.805479
thorax -5.35978 1.54608 -1.373
lowerneck -15.5123 -3.44855 -1.3876
upperneck 24.0909 -4.56022 0.242116
head 10.2965 -2.19574 -0.289555
rclavicle 6.58474e-016 -3.37934e-015
rhumerus -25.1059 -13.7392 -80.8393
rradius 31.7345
rwrist 0.000503157
rhand -19.3327 22.6074
rfingers 7.12502
rthumb 6.98401 -7.25739
lclavicle 6.58474e-016 -3.37934e-015
lhumerus -37.6523 11.9723 78.0394
lradius 19.4588
lwrist 0.203557
lhand -25.0409 21.6755
lfingers 7.12502
lthumb 1.4721 51.6501
rfemur 0.400885 3.82513 25.0679
rtibia 55.959
rfoot 20.7921 1.60576
rtoes 15.9803
lfemur -16.1682 -1.70882 -20.84
ltibia 26.7927
lfoot -5.34082 -0.772137
ltoes -2.22883
110
root 0.823931 18.0939 -8.84826 -3.06366 -4.47725 -1.7987
lowerback 9.75027 2.13951 2.51708
upperback 0.121053 3.16699 0.686681
thorax -5.24383 1.50548 -1.14206
lowerneck -15.4589 -3.38908 -1.28431
upperneck 23.9193 -4.46279 0.0933259
head 10.2165 -2.16096 -0.342863
rclavicle 8.51047e-015 9.44227e-015
rhumerus -25.2076 -14.0386 -80.8985
rradius 31.3838
rwrist 0.12672
rhand -19.2357 22.8845
rfingers 7.12502
rthumb 7.07759 -6.97717
lclavicle 8.51047e-015 9.44227e-015
lhumerus -37.591 11.6287 78.2633
lradius 20.0043
lwrist 0.804685
lhand -25.1834 21.0066
lfingers 7.12502
lthumb 1.33441 50.9821
rfemur -1.31713 3.69606 24.2741
rtibia 58.7785
rfoot 22.3309 0.985994
rtoes 18.812
lfemur -15.4123 -1.94713 -21.6039
ltibia 26.9067
lfoot -5.96459 -0.221604
ltoes -2.00367
111
root 0.834811 18.0938 -8.67215 -3.26512 -4.60858 -1.23478
lowerback 9.87768 2.1355 1.83955
upperback 0.229256 3.084 0.644479
thorax -5.23766 1.4818 -0.79861
lowerneck -15.6426 -3.36804 -1.46005
upperneck 23.936 -4.36987 0.0407323
head 10.2605 -2.13943 -0.323635
rclavicle -3.7238e-014 6.65929e-015
rhumerus -25.2283 -14.1621 -80.9156
rradius 31.0577
rwrist 0.201263
rhand -19.0931 23.1289
rfingers 7.12502
rthumb 7.21524 -6.72806
lclavicle -3.7238e-014 6.65929e-015
lhumerus -37.2937 11.5868 78.4562
lradius 20.1688
lwrist 1.04454
lhand -25.2915 19.8441
lfingers 7.12502
lthumb 1.23008 49.8203
rfemur -2.9995 3.60117 23.5121
rtibia 61.5358
rfoot 23.1052 0.480305
rtoes 17.9261
lfemur -14.6033 -2.07499 -22.3629
ltibia 27.0927
lfoot -6.56528 0.331241
ltoes -1.79138
112
root 0.841988 18.0897 -8.5091 -3.43753 -4.76216 -0.827698
lowerback 10.1096 2.12945 1.32471
upperback 0.321936 3.01743 0.596616
thorax -5.29594 1.46066 -0.558638
lowerneck -15.7326 -3.31553 -1.49029
upperneck 23.8197 -4.26845 -0.0210109
head 10.2341 -2.10318 -0.327086
rclavicle 2.85163e-014 -9.93923e-015
rhumerus -25.325 -14.0653 -81.0461
rradius 30.9776
rwrist 0.18047
rhand -19.3053 22.749
rfingers 7.12502
rthumb 7.01048 -7.11495
lclavicle 2.85163e-014 -9.93923e-015
lhumerus -36.8079 11.3051 78.6703
lradius 20.0707
lwrist 1.31465
lhand -25.6479 18.9473
lfingers 7.12502
lthumb 0.885784 48.9252
rfemur -4.8073 3.52523 22.9959
rtibia 64.1683
rfoot 23.1231 -0.470285
rtoes 17.4066
lfemur -13.9022 -2.10024 -22.9119
ltibia 27.2497
lfoot -7.14873 0.798897
ltoes -2.14156
113
root 0.851724 18.087 -8.34274 -3.45104 -4.923 -0.467287
lowerback 10.1373 2.13065 1.01977
upperback 0.320509 2.97514 0.433176
thorax -5.32022 1.44517 -0.553234
lowerneck -15.5021 -3.26285 -1.40012
upperneck 23.5098 -4.22889 0.0203952
head 10.0767 -2.07501 -0.314087
rclavicle -4.63106e-015 -2.68359e-014
rhumerus -25.3869 -14.3541 -81.2253
rradius 30.3794
rwrist 0.714645
rhand -19.9581 23.0192
rfingers 7.12502
rthumb 6.38031 -6.86471
lclavicle -4.63106e-015 -2.68359e-014
lhumerus -36.3809 10.6627 78.841
lradius 20.0531
lwrist 1.83299
lhand -25.8798 18.8373
lfingers 7.12502
lthumb 0.661827 48.8161
rfemur -6.60501 3.41145 22.512
rtibia 66.5955
rfoot 22.3677 -1.11481
rtoes 18.2008
lfemur -13.3187 -1.96634 -23.4195
ltibia 27.4107
lfoot -7.67187 1.10905
ltoes -3.85391
114
root 0.859287 18.0844 -8.16708 -3.58338 -5.07604 -0.069504
lowerback 10.1332 2.16722 0.681379
upperback 0.377627 2.9734 0.243926
thorax -5.2649 1.45105 -0.558869
lowerneck -15.4768 -3.26126 -1.28154
upperneck 23.4186 -4.2761 0.0911566
head 10.0382 -2.07875 -0.313719
rclavicle -7.30844e-015 4.37326e-015
rhumerus -25.3714 -15.2257 -81.2361
rradius 29.3712
rwrist 1.76789
rhand -20.1533 24.5827
rfingers 7.12502
rthumb 6.19181 -5.3068
lclavicle -7.30844e-015 4.37326e-015
lhumerus -36.0631 9.37083 79.2487
lradius 20.5222
lwrist 2.80838
lhand -25.4753 18.9974
lfingers 7.12502
lthumb 1.05247 48.9745
rfemur -8.11272 3.26935 22.0059
rtibia 68.7681
rfoot 20.5787 -1.46402
rtoes 17.4906
lfemur -12.5388 -1.60499 -23.9625
ltibia 27.4897
lfoot -8.28407 1.16004
ltoes -1.59428
115
root 0.861081 18.0792 -7.99189 -3.84058 -5.27659 0.132571
lowerback 10.2529 2.14577 0.383259
upperback 0.45735 2.91115 0.260981
thorax -5.26489 1.42776 -0.368201
lowerneck -15.4328 -3.19154 -1.37876
upperneck 23.5045 -4.14497 0.0536664
head 10.0613 -2.0314 -0.293614
rclavicle 2.15775e-014 -1.98785e-016
rhumerus -25.4867 -15.5844 -81.1232
rradius 28.7344
rwrist 2.23544
rhand -19.6886 25.8697
rfingers 7.12502
rthumb 6.6404 -4.00622
lclavicle 2.15775e-014 -1.98785e-016
lhumerus -35.8088 8.81716 79.4882
lradius 20.7692
lwrist 3.15357
lhand -25.4301 19.2442
lfingers 7.12502
lthumb 1.09619 49.2211
rfemur -9.47439 3.10367 21.7811
rtibia 70.6531
rfoot 18.6201 -1.8226
rtoes 16.4831
lfemur -11.5878 -1.07711 -24.2364
ltibia 27.4363
lfoot -8.95338 1.06048
ltoes -2.04543
116
root 0.867691 18.0739 -7.82081 -3.94183 -5.30932 0.519528
lowerback 10.2394 2.05747 -0.0169441
upperback 0.48113 2.74464 0.218966
thorax -5.25014 1.35497 -0.162352
lowerneck -15.2282 -3.0669 -1.39973
upperneck 23.3485 -3.9334 -0.0710885
head 9.96247 -1.95229 -0.300472
rclavicle -3.9378e-014 -5.66536e-015
rhumerus -25.476 -15.6711 -81.1796
rradius 28.4106
rwrist 2.41562
rhand -19.5544 24.8169
rfingers 7.12502
rthumb 6.77001 -5.05491
lclavicle -3.9378e-014 -5.66536e-015
lhumerus -35.3932 8.68864 79.5991
lradius 20.635
lwrist 2.96479
lhand -26.3475 20.4809
lfingers 7.12502
lthumb 0.210132 50.4606
rfemur -10.9616 2.77374 21.287
rtibia 72.278
rfoot 16.6101 -2.18345
rtoes 16.4612
lfemur -10.825 -0.946805 -24.7612
ltibia 27.2038
lfoot -9.3375 1.28408
ltoes -0.10474
